<svg viewBox="0 0 16 16" xmlns="http://www.w3.org/2000/svg"><path d="m8 9.65s0 2.22 3.66 2.22c2.34 0 2.58 1.55 2.27 2.13-2.93-.67-4 1.06-5.93 1.06s-3-1.73-5.93-1.06c-.31-.58-.07-2.13 2.27-2.13 3.66-0 3.66-2.22 3.66-2.22z" fill="#fc9c9c"/><g fill="none" stroke="#fc9c9c" stroke-width="1.5"><path d="m7.93 11.24a4.31 4.31 0 0 0 -.53-3.92" stroke-linecap="round" stroke-linejoin="round"/><path d="m10.84 5.34a2.55 2.55 0 0 0 -.84 1.47 2.54 2.54 0 0 0 1.68.25c.98-.19 2.11-2.06 2.11-2.06s-2.23-.31-2.95.34z" stroke-miterlimit="10"/><path d="m6.85 4.92c-.68-1.14-1.85-1.06-3.34-1.63a4.58 4.58 0 0 1 -1.44-.92 7 7 0 0 0 -.3 1.39 3.35 3.35 0 0 0 1.82 3.77c1.51.65 3.17.23 3.41-.13a2.38 2.38 0 0 0 -.15-2.48z" stroke-miterlimit="10"/></g></svg>
