<svg id="gardener_icon" xmlns="http://www.w3.org/2000/svg" viewBox="0 0 16 16"><path id="ground" d="M8,9.65s0,2.22,3.66,2.22c2.34,0,2.58,1.55,2.27,2.13-2.93-.67-4,1.06-5.93,1.06S5,13.33,2.07,14c-.31-.58-.07-2.13,2.27-2.13C8,11.87,8,9.65,8,9.65Z" style="fill:#fc9c9c"/><path id="stem" d="M7.93,11.24A4.31,4.31,0,0,0,7.4,7.32" style="fill:none;stroke:#fc9c9c;stroke-linecap:round;stroke-linejoin:round;stroke-width:1.5px"/><path id="leaf_2" d="M10.84,5.34A2.55,2.55,0,0,0,10,6.81a2.54,2.54,0,0,0,1.68.25C12.66,6.87,13.79,5,13.79,5S11.56,4.69,10.84,5.34Z" style="fill:none;stroke:#fc9c9c;stroke-miterlimit:10;stroke-width:1.5px"/><path id="leaf_1" d="M6.85,4.92C6.17,3.78,5,3.86,3.51,3.29a4.58,4.58,0,0,1-1.44-.92,7,7,0,0,0-.3,1.39A3.35,3.35,0,0,0,3.59,7.53C5.1,8.18,6.76,7.76,7,7.4A2.38,2.38,0,0,0,6.85,4.92Z" style="fill:none;stroke:#fc9c9c;stroke-miterlimit:10;stroke-width:1.5px"/></svg>