<?xml version="1.0" encoding="utf-8"?>
<!-- Generator: Adobe Illustrator 24.1.2, SVG Export Plug-In . SVG Version: 6.00 Build 0)  -->
<svg version="1.1" id="Layer_1" xmlns="http://www.w3.org/2000/svg" xmlns:xlink="http://www.w3.org/1999/xlink" x="0px" y="0px"
	 viewBox="0 0 16 16" style="enable-background:new 0 0 16 16;" xml:space="preserve">
<style type="text/css">
	.st0{fill:#EE7778;}
	.st1{fill:none;stroke:#EE7778;stroke-width:1.5;stroke-linecap:round;stroke-linejoin:round;}
	.st2{fill:none;stroke:#EE7778;stroke-width:1.5;stroke-miterlimit:10;}
</style>
<path class="st0" d="M8,9.6c0,0,0,2.2,3.7,2.2c2.3,0,2.6,1.6,2.3,2.1c-2.9-0.7-4,1.1-5.9,1.1S5,13.3,2.1,14
	c-0.3-0.6-0.1-2.1,2.3-2.1C8,11.9,8,9.6,8,9.6z"/>
<g>
	<path class="st1" d="M7.9,11.2c0.5-1.3,0.3-2.8-0.5-3.9"/>
	<path class="st2" d="M10.8,5.3c-0.4,0.4-0.7,0.9-0.8,1.5c0.5,0.3,1.1,0.4,1.7,0.3c1-0.2,2.1-2.1,2.1-2.1S11.6,4.7,10.8,5.3z"/>
	<path class="st2" d="M6.8,4.9C6.2,3.8,5,3.9,3.5,3.3C3,3.1,2.5,2.8,2.1,2.4C1.9,2.8,1.8,3.3,1.8,3.8C1.4,5.3,2.2,6.9,3.6,7.5
		C5.1,8.2,6.8,7.8,7,7.4C7.4,6.6,7.4,5.7,6.8,4.9z"/>
</g>
</svg>
