<svg xmlns="http://www.w3.org/2000/svg" xml:space="preserve" style="fill-rule:evenodd;clip-rule:evenodd;stroke-linecap:round;stroke-linejoin:round" viewBox="0 0 32 32"><path d="M16 19.2s0 4.4 7.4 4.4c4.6 0 5.2 3.2 4.6 4.2-5.8-1.4-8 2.2-11.8 2.2s-6.2-3.4-12-2c-.6-1.2-.2-4.2 4.6-4.2 7.2 0 7.2-4.6 7.2-4.6" style="fill:#ee7778;fill-rule:nonzero"/><path d="M15.8 22.4c1-2.6.6-5.6-1-7.8" style="fill:none;fill-rule:nonzero;stroke:#ee7778;stroke-width:3px"/><path d="M21.6 10.6c-.8.8-1.4 1.8-1.6 3 1 .6 2.2.8 3.4.6 2-.4 4.2-4.2 4.2-4.2s-4.4-.6-6 .6ZM13.6 9.8C12.4 7.6 10 7.8 7 6.6c-1-.4-2-1-2.8-1.8-.4.8-.6 1.8-.6 2.8-.8 3 .8 6.2 3.6 7.4 3 1.4 6.4.6 6.8-.2.8-1.6.8-3.4-.4-5Z" style="fill:none;fill-rule:nonzero;stroke:#ee7778;stroke-width:3px;stroke-linecap:butt;stroke-linejoin:miter;stroke-miterlimit:10"/></svg>